<mxfile host="app.diagrams.net" modified="2023-11-07T12:14:41.365Z" agent="Mozilla/5.0 (Windows NT 10.0; Win64; x64) AppleWebKit/537.36 (KHTML, like Gecko) Chrome/116.0.0.0 Safari/537.36 Edg/116.0.1938.98" etag="_Ej5FAjyAhzveOgkKcS2" version="22.0.8" type="device">
  <diagram name="Page-1" id="zE0WQaUAqz_7t7J0Ry3Y">
    <mxGraphModel dx="2074" dy="1156" grid="1" gridSize="10" guides="1" tooltips="1" connect="1" arrows="1" fold="1" page="1" pageScale="1" pageWidth="827" pageHeight="1169" math="0" shadow="0">
      <root>
        <mxCell id="0" />
        <mxCell id="1" parent="0" />
        <mxCell id="SL3Ku4DFtACWkYJtqPDr-27" value="" style="group" vertex="1" connectable="0" parent="1">
          <mxGeometry x="50" y="80" width="810" height="601.4" as="geometry" />
        </mxCell>
        <mxCell id="SL3Ku4DFtACWkYJtqPDr-22" value="" style="rounded=1;whiteSpace=wrap;html=1;dashed=1;dashPattern=8 8;" vertex="1" parent="SL3Ku4DFtACWkYJtqPDr-27">
          <mxGeometry x="410" y="270" width="400" height="150" as="geometry" />
        </mxCell>
        <mxCell id="SL3Ku4DFtACWkYJtqPDr-19" value="" style="group" vertex="1" connectable="0" parent="SL3Ku4DFtACWkYJtqPDr-27">
          <mxGeometry x="620" y="290" width="170" height="110" as="geometry" />
        </mxCell>
        <mxCell id="SL3Ku4DFtACWkYJtqPDr-3" value="Composants" style="rounded=1;whiteSpace=wrap;html=1;" vertex="1" parent="SL3Ku4DFtACWkYJtqPDr-19">
          <mxGeometry width="120" height="60" as="geometry" />
        </mxCell>
        <mxCell id="SL3Ku4DFtACWkYJtqPDr-4" value="Composants" style="rounded=1;whiteSpace=wrap;html=1;" vertex="1" parent="SL3Ku4DFtACWkYJtqPDr-19">
          <mxGeometry x="10" y="10" width="120" height="60" as="geometry" />
        </mxCell>
        <mxCell id="SL3Ku4DFtACWkYJtqPDr-5" value="Composants" style="rounded=1;whiteSpace=wrap;html=1;" vertex="1" parent="SL3Ku4DFtACWkYJtqPDr-19">
          <mxGeometry x="20" y="20" width="120" height="60" as="geometry" />
        </mxCell>
        <mxCell id="SL3Ku4DFtACWkYJtqPDr-6" value="Composants" style="rounded=1;whiteSpace=wrap;html=1;" vertex="1" parent="SL3Ku4DFtACWkYJtqPDr-19">
          <mxGeometry x="30" y="30" width="120" height="60" as="geometry" />
        </mxCell>
        <mxCell id="SL3Ku4DFtACWkYJtqPDr-7" value="Composants" style="rounded=1;whiteSpace=wrap;html=1;" vertex="1" parent="SL3Ku4DFtACWkYJtqPDr-19">
          <mxGeometry x="40" y="40" width="120" height="60" as="geometry" />
        </mxCell>
        <mxCell id="SL3Ku4DFtACWkYJtqPDr-8" value="Composants" style="rounded=1;whiteSpace=wrap;html=1;" vertex="1" parent="SL3Ku4DFtACWkYJtqPDr-19">
          <mxGeometry x="50" y="50" width="120" height="60" as="geometry" />
        </mxCell>
        <mxCell id="SL3Ku4DFtACWkYJtqPDr-1" value="Environnement de Développement&lt;br style=&quot;font-size: 17px;&quot;&gt;(IDE)" style="rounded=1;whiteSpace=wrap;html=1;fontStyle=1;fontSize=17;fillColor=#d5e8d4;strokeColor=#82b366;" vertex="1" parent="SL3Ku4DFtACWkYJtqPDr-27">
          <mxGeometry x="390" y="120" width="190" height="80" as="geometry" />
        </mxCell>
        <mxCell id="SL3Ku4DFtACWkYJtqPDr-21" style="edgeStyle=orthogonalEdgeStyle;rounded=0;orthogonalLoop=1;jettySize=auto;html=1;exitX=1;exitY=0.5;exitDx=0;exitDy=0;endArrow=none;endFill=0;" edge="1" parent="SL3Ku4DFtACWkYJtqPDr-27" source="SL3Ku4DFtACWkYJtqPDr-2" target="SL3Ku4DFtACWkYJtqPDr-6">
          <mxGeometry relative="1" as="geometry" />
        </mxCell>
        <mxCell id="SL3Ku4DFtACWkYJtqPDr-2" value="Carte électronique" style="rounded=1;whiteSpace=wrap;html=1;fillColor=#dae8fc;strokeColor=#6c8ebf;" vertex="1" parent="SL3Ku4DFtACWkYJtqPDr-27">
          <mxGeometry x="425" y="320" width="120" height="60" as="geometry" />
        </mxCell>
        <mxCell id="SL3Ku4DFtACWkYJtqPDr-11" style="edgeStyle=orthogonalEdgeStyle;rounded=0;orthogonalLoop=1;jettySize=auto;html=1;entryX=0.5;entryY=0;entryDx=0;entryDy=0;" edge="1" parent="SL3Ku4DFtACWkYJtqPDr-27" source="SL3Ku4DFtACWkYJtqPDr-1" target="SL3Ku4DFtACWkYJtqPDr-2">
          <mxGeometry relative="1" as="geometry" />
        </mxCell>
        <mxCell id="SL3Ku4DFtACWkYJtqPDr-10" style="edgeStyle=orthogonalEdgeStyle;rounded=0;orthogonalLoop=1;jettySize=auto;html=1;" edge="1" parent="SL3Ku4DFtACWkYJtqPDr-27" source="SL3Ku4DFtACWkYJtqPDr-9" target="SL3Ku4DFtACWkYJtqPDr-1">
          <mxGeometry relative="1" as="geometry" />
        </mxCell>
        <mxCell id="SL3Ku4DFtACWkYJtqPDr-9" value="Programme" style="shape=document;whiteSpace=wrap;html=1;boundedLbl=1;" vertex="1" parent="SL3Ku4DFtACWkYJtqPDr-27">
          <mxGeometry x="170" y="120" width="80" height="80" as="geometry" />
        </mxCell>
        <mxCell id="SL3Ku4DFtACWkYJtqPDr-16" value="" style="group" vertex="1" connectable="0" parent="SL3Ku4DFtACWkYJtqPDr-27">
          <mxGeometry x="610" width="150" height="90" as="geometry" />
        </mxCell>
        <mxCell id="SL3Ku4DFtACWkYJtqPDr-12" value="Librairie" style="rounded=1;whiteSpace=wrap;html=1;" vertex="1" parent="SL3Ku4DFtACWkYJtqPDr-16">
          <mxGeometry width="120" height="60" as="geometry" />
        </mxCell>
        <mxCell id="SL3Ku4DFtACWkYJtqPDr-13" value="Librairie" style="rounded=1;whiteSpace=wrap;html=1;" vertex="1" parent="SL3Ku4DFtACWkYJtqPDr-16">
          <mxGeometry x="10" y="10" width="120" height="60" as="geometry" />
        </mxCell>
        <mxCell id="SL3Ku4DFtACWkYJtqPDr-14" value="Librairie" style="rounded=1;whiteSpace=wrap;html=1;" vertex="1" parent="SL3Ku4DFtACWkYJtqPDr-16">
          <mxGeometry x="20" y="20" width="120" height="60" as="geometry" />
        </mxCell>
        <mxCell id="SL3Ku4DFtACWkYJtqPDr-15" value="Librairie" style="rounded=1;whiteSpace=wrap;html=1;" vertex="1" parent="SL3Ku4DFtACWkYJtqPDr-16">
          <mxGeometry x="30" y="30" width="120" height="60" as="geometry" />
        </mxCell>
        <mxCell id="SL3Ku4DFtACWkYJtqPDr-17" style="edgeStyle=orthogonalEdgeStyle;rounded=0;orthogonalLoop=1;jettySize=auto;html=1;entryX=0.75;entryY=0;entryDx=0;entryDy=0;" edge="1" parent="SL3Ku4DFtACWkYJtqPDr-27" source="SL3Ku4DFtACWkYJtqPDr-14" target="SL3Ku4DFtACWkYJtqPDr-1">
          <mxGeometry relative="1" as="geometry" />
        </mxCell>
        <mxCell id="SL3Ku4DFtACWkYJtqPDr-23" value="Montage électronique" style="text;html=1;strokeColor=none;fillColor=none;align=center;verticalAlign=middle;whiteSpace=wrap;rounded=0;" vertex="1" parent="SL3Ku4DFtACWkYJtqPDr-27">
          <mxGeometry x="410" y="420" width="400" height="30" as="geometry" />
        </mxCell>
        <mxCell id="SL3Ku4DFtACWkYJtqPDr-24" value="" style="shape=image;verticalLabelPosition=bottom;labelBackgroundColor=default;verticalAlign=top;aspect=fixed;imageAspect=0;image=https://images.sftcdn.net/images/t_app-cover-m,f_auto/p/00e71768-9b24-11e6-bed8-00163ed833e7/3929059378/wallpaper-homer-simpsons-screenshot.jpg;" vertex="1" parent="SL3Ku4DFtACWkYJtqPDr-27">
          <mxGeometry y="100" width="160" height="120" as="geometry" />
        </mxCell>
        <mxCell id="SL3Ku4DFtACWkYJtqPDr-25" value="" style="shape=image;verticalLabelPosition=bottom;labelBackgroundColor=default;verticalAlign=top;aspect=fixed;imageAspect=0;image=https://www.maths-info-lycee.fr/images/icn_arduino_mont_diode1.jpg;" vertex="1" parent="SL3Ku4DFtACWkYJtqPDr-27">
          <mxGeometry x="430" y="450" width="372.3" height="151.4" as="geometry" />
        </mxCell>
        <mxCell id="SL3Ku4DFtACWkYJtqPDr-44" value="" style="group" vertex="1" connectable="0" parent="1">
          <mxGeometry x="160" y="830" width="590" height="300" as="geometry" />
        </mxCell>
        <mxCell id="SL3Ku4DFtACWkYJtqPDr-28" value="&lt;b&gt;Microcontrôleur&lt;/b&gt;&lt;br&gt;(µC)" style="rounded=1;whiteSpace=wrap;html=1;" vertex="1" parent="SL3Ku4DFtACWkYJtqPDr-44">
          <mxGeometry x="160" y="120" width="120" height="60" as="geometry" />
        </mxCell>
        <mxCell id="SL3Ku4DFtACWkYJtqPDr-31" style="edgeStyle=orthogonalEdgeStyle;rounded=0;orthogonalLoop=1;jettySize=auto;html=1;entryX=0.25;entryY=0;entryDx=0;entryDy=0;" edge="1" parent="SL3Ku4DFtACWkYJtqPDr-44" source="SL3Ku4DFtACWkYJtqPDr-29" target="SL3Ku4DFtACWkYJtqPDr-28">
          <mxGeometry relative="1" as="geometry" />
        </mxCell>
        <mxCell id="SL3Ku4DFtACWkYJtqPDr-29" value="&lt;b&gt;Ports d&#39;entrée&lt;br&gt;&lt;/b&gt;(pins in)" style="rounded=1;whiteSpace=wrap;html=1;" vertex="1" parent="SL3Ku4DFtACWkYJtqPDr-44">
          <mxGeometry y="40" width="120" height="60" as="geometry" />
        </mxCell>
        <mxCell id="SL3Ku4DFtACWkYJtqPDr-30" value="&lt;b&gt;Ports de sortie&lt;br&gt;&lt;/b&gt;(pins out)" style="rounded=1;whiteSpace=wrap;html=1;" vertex="1" parent="SL3Ku4DFtACWkYJtqPDr-44">
          <mxGeometry y="200" width="120" height="60" as="geometry" />
        </mxCell>
        <mxCell id="SL3Ku4DFtACWkYJtqPDr-33" style="edgeStyle=orthogonalEdgeStyle;rounded=0;orthogonalLoop=1;jettySize=auto;html=1;exitX=0.25;exitY=1;exitDx=0;exitDy=0;entryX=1;entryY=0.5;entryDx=0;entryDy=0;" edge="1" parent="SL3Ku4DFtACWkYJtqPDr-44" source="SL3Ku4DFtACWkYJtqPDr-28" target="SL3Ku4DFtACWkYJtqPDr-30">
          <mxGeometry relative="1" as="geometry" />
        </mxCell>
        <mxCell id="SL3Ku4DFtACWkYJtqPDr-38" style="edgeStyle=orthogonalEdgeStyle;rounded=0;orthogonalLoop=1;jettySize=auto;html=1;entryX=0.75;entryY=0;entryDx=0;entryDy=0;startArrow=classic;startFill=1;" edge="1" parent="SL3Ku4DFtACWkYJtqPDr-44" source="SL3Ku4DFtACWkYJtqPDr-34" target="SL3Ku4DFtACWkYJtqPDr-28">
          <mxGeometry relative="1" as="geometry" />
        </mxCell>
        <mxCell id="SL3Ku4DFtACWkYJtqPDr-34" value="&lt;b&gt;Module de communication&lt;br&gt;&lt;/b&gt;(Wifi, Bluetooth, ...)" style="rounded=1;whiteSpace=wrap;html=1;fillColor=#D4D4D4;strokeColor=#36393d;" vertex="1" parent="SL3Ku4DFtACWkYJtqPDr-44">
          <mxGeometry x="320" y="40" width="120" height="60" as="geometry" />
        </mxCell>
        <mxCell id="SL3Ku4DFtACWkYJtqPDr-37" style="edgeStyle=orthogonalEdgeStyle;rounded=0;orthogonalLoop=1;jettySize=auto;html=1;entryX=1;entryY=0.5;entryDx=0;entryDy=0;startArrow=classic;startFill=1;" edge="1" parent="SL3Ku4DFtACWkYJtqPDr-44" source="SL3Ku4DFtACWkYJtqPDr-35" target="SL3Ku4DFtACWkYJtqPDr-28">
          <mxGeometry relative="1" as="geometry" />
        </mxCell>
        <mxCell id="SL3Ku4DFtACWkYJtqPDr-35" value="&lt;b&gt;Port(s) USB&lt;/b&gt;" style="rounded=1;whiteSpace=wrap;html=1;" vertex="1" parent="SL3Ku4DFtACWkYJtqPDr-44">
          <mxGeometry x="320" y="120" width="120" height="60" as="geometry" />
        </mxCell>
        <mxCell id="SL3Ku4DFtACWkYJtqPDr-39" style="edgeStyle=orthogonalEdgeStyle;rounded=0;orthogonalLoop=1;jettySize=auto;html=1;entryX=0.75;entryY=1;entryDx=0;entryDy=0;startArrow=classic;startFill=1;" edge="1" parent="SL3Ku4DFtACWkYJtqPDr-44" source="SL3Ku4DFtACWkYJtqPDr-36" target="SL3Ku4DFtACWkYJtqPDr-28">
          <mxGeometry relative="1" as="geometry" />
        </mxCell>
        <mxCell id="SL3Ku4DFtACWkYJtqPDr-36" value="&lt;b&gt;Autres composants&lt;/b&gt;" style="rounded=1;whiteSpace=wrap;html=1;fillColor=#D4D4D4;strokeColor=#36393d;" vertex="1" parent="SL3Ku4DFtACWkYJtqPDr-44">
          <mxGeometry x="320" y="200" width="120" height="60" as="geometry" />
        </mxCell>
        <mxCell id="SL3Ku4DFtACWkYJtqPDr-40" value="- capteur de t°&lt;br&gt;&lt;div style=&quot;&quot;&gt;&lt;span style=&quot;background-color: initial;&quot;&gt;- micro&lt;/span&gt;&lt;/div&gt;&lt;div style=&quot;&quot;&gt;&lt;span style=&quot;background-color: initial;&quot;&gt;- lecteur de cartes mémoire&lt;/span&gt;&lt;/div&gt;&lt;div style=&quot;&quot;&gt;- ...&lt;/div&gt;" style="text;html=1;strokeColor=none;fillColor=none;align=left;verticalAlign=middle;whiteSpace=wrap;rounded=0;" vertex="1" parent="SL3Ku4DFtACWkYJtqPDr-44">
          <mxGeometry x="450" y="200" width="140" height="70" as="geometry" />
        </mxCell>
        <mxCell id="SL3Ku4DFtACWkYJtqPDr-42" value="&lt;div style=&quot;text-align: center;&quot;&gt;&lt;span style=&quot;background-color: initial;&quot;&gt;Acquisition de données&lt;/span&gt;&lt;/div&gt;" style="text;html=1;strokeColor=none;fillColor=none;align=left;verticalAlign=middle;whiteSpace=wrap;rounded=0;" vertex="1" parent="SL3Ku4DFtACWkYJtqPDr-44">
          <mxGeometry x="10" width="100" height="40" as="geometry" />
        </mxCell>
        <mxCell id="SL3Ku4DFtACWkYJtqPDr-43" value="&lt;div style=&quot;&quot;&gt;&lt;span style=&quot;background-color: initial;&quot;&gt;Actionneurs&lt;/span&gt;&lt;/div&gt;" style="text;html=1;strokeColor=none;fillColor=none;align=center;verticalAlign=middle;whiteSpace=wrap;rounded=0;" vertex="1" parent="SL3Ku4DFtACWkYJtqPDr-44">
          <mxGeometry x="10" y="260" width="100" height="40" as="geometry" />
        </mxCell>
      </root>
    </mxGraphModel>
  </diagram>
</mxfile>
